<svg id="canvas" height="auto" xmlns="http://www.w3.org/2000/svg" version="1.1" xmlns:xlink="http://www.w3.org/1999/xlink" viewBox="0 0 300 100" width="auto" style="width: auto; height: auto;"><defs><linearGradient gradientTransform="matrix(1,0,0,1,0,0)" id="SvgjsLinearGradient1307"><stop stop-color="#ffa07a" offset="0"/><stop stop-color="#d9ff7a" offset="1"/></linearGradient><linearGradient gradientTransform="matrix(1,0,0,1,0,0)" id="SvgjsLinearGradient1308"><stop stop-color="#ff7f50" offset="0"/><stop stop-color="#d0ff50" offset="1"/></linearGradient><linearGradient gradientTransform="matrix(1,0,0,1,0,0)" id="SvgjsLinearGradient1305"><stop stop-color="#ff4500" offset="0"/><stop stop-color="#baff00" offset="1"/></linearGradient><linearGradient gradientTransform="matrix(1,0,0,1,0,0)" id="SvgjsLinearGradient1306"><stop stop-color="#ff8c00" offset="0"/><stop stop-color="#73ff00" offset="1"/></linearGradient><linearGradient gradientTransform="matrix(1,0,0,1,0,0)" id="SvgjsLinearGradient1304"><stop stop-color="#ff6347" offset="0"/><stop stop-color="#e3ff47" offset="1"/></linearGradient></defs><rect width="2750" height="2750" fill="url(#SvgjsLinearGradient1304)" transform="matrix(1,0,0,1,-1762.5,-1962.5)"/><rect width="2700" height="2700" fill="url(#SvgjsLinearGradient1305)" transform="matrix(1,0,0,1,-1725,-1925)"/><rect width="2650" height="2650" fill="url(#SvgjsLinearGradient1306)" transform="matrix(1,0,0,1,-1687.5,-1887.5)"/><rect width="2600" height="2600" fill="url(#SvgjsLinearGradient1307)" transform="matrix(1,0,0,1,-1650,-1850)"/><rect width="2550" height="2550" fill="url(#SvgjsLinearGradient1308)" transform="matrix(1,0,0,1,-1612.5,-1812.5)"/><rect width="2500" height="2500" fill="url(#SvgjsLinearGradient1305)" transform="matrix(1,0,0,1,-1575,-1775)"/><rect width="2450" height="2450" fill="url(#SvgjsLinearGradient1306)" transform="matrix(1,0,0,1,-1537.5,-1737.5)"/><rect width="2400" height="2400" fill="url(#SvgjsLinearGradient1305)" transform="matrix(1,0,0,1,-1500,-1700)"/><rect width="2350" height="2350" fill="url(#SvgjsLinearGradient1305)" transform="matrix(1,0,0,1,-1462.5,-1662.5)"/><rect width="2300" height="2300" fill="url(#SvgjsLinearGradient1306)" transform="matrix(1,0,0,1,-1425,-1625)"/><rect width="2250" height="2250" fill="url(#SvgjsLinearGradient1307)" transform="matrix(1,0,0,1,-1387.5,-1587.5)"/><rect width="2200" height="2200" fill="url(#SvgjsLinearGradient1307)" transform="matrix(1,0,0,1,-1350,-1550)"/><rect width="2150" height="2150" fill="url(#SvgjsLinearGradient1306)" transform="matrix(1,0,0,1,-1312.5,-1512.5)"/><rect width="2100" height="2100" fill="url(#SvgjsLinearGradient1306)" transform="matrix(1,0,0,1,-1275,-1475)"/><rect width="2050" height="2050" fill="url(#SvgjsLinearGradient1305)" transform="matrix(1,0,0,1,-1237.5,-1437.5)"/><rect width="2000" height="2000" fill="url(#SvgjsLinearGradient1307)" transform="matrix(1,0,0,1,-1200,-1400)"/><rect width="1950" height="1950" fill="url(#SvgjsLinearGradient1304)" transform="matrix(1,0,0,1,-1162.5,-1362.5)"/><rect width="1900" height="1900" fill="url(#SvgjsLinearGradient1307)" transform="matrix(1,0,0,1,-1125,-1325)"/><rect width="1850" height="1850" fill="url(#SvgjsLinearGradient1308)" transform="matrix(1,0,0,1,-1087.5,-1287.5)"/><rect width="1800" height="1800" fill="url(#SvgjsLinearGradient1306)" transform="matrix(1,0,0,1,-1050,-1250)"/><rect width="1750" height="1750" fill="url(#SvgjsLinearGradient1307)" transform="matrix(1,0,0,1,-1012.5,-1212.5)"/><rect width="1700" height="1700" fill="url(#SvgjsLinearGradient1307)" transform="matrix(1,0,0,1,-975,-1175)"/><rect width="1650" height="1650" fill="url(#SvgjsLinearGradient1306)" transform="matrix(1,0,0,1,-937.5,-1137.5)"/><rect width="1600" height="1600" fill="url(#SvgjsLinearGradient1306)" transform="matrix(1,0,0,1,-900,-1100)"/><rect width="1550" height="1550" fill="url(#SvgjsLinearGradient1305)" transform="matrix(1,0,0,1,-862.5,-1062.5)"/><rect width="1500" height="1500" fill="url(#SvgjsLinearGradient1308)" transform="matrix(1,0,0,1,-825,-1025)"/><rect width="1450" height="1450" fill="url(#SvgjsLinearGradient1306)" transform="matrix(1,0,0,1,-787.5,-987.5)"/><rect width="1400" height="1400" fill="url(#SvgjsLinearGradient1306)" transform="matrix(1,0,0,1,-750,-950)"/><rect width="1350" height="1350" fill="url(#SvgjsLinearGradient1304)" transform="matrix(1,0,0,1,-712.5,-912.5)"/><rect width="1300" height="1300" fill="url(#SvgjsLinearGradient1305)" transform="matrix(1,0,0,1,-675,-875)"/><rect width="1250" height="1250" fill="url(#SvgjsLinearGradient1305)" transform="matrix(1,0,0,1,-637.5,-837.5)"/><rect width="1200" height="1200" fill="url(#SvgjsLinearGradient1307)" transform="matrix(1,0,0,1,-600,-800)"/><rect width="1150" height="1150" fill="url(#SvgjsLinearGradient1305)" transform="matrix(1,0,0,1,-562.5,-762.5)"/><rect width="1100" height="1100" fill="url(#SvgjsLinearGradient1308)" transform="matrix(1,0,0,1,-525,-725)"/><rect width="1050" height="1050" fill="url(#SvgjsLinearGradient1305)" transform="matrix(1,0,0,1,-487.5,-687.5)"/><rect width="1000" height="1000" fill="url(#SvgjsLinearGradient1305)" transform="matrix(1,0,0,1,-450,-650)"/><rect width="950" height="950" fill="url(#SvgjsLinearGradient1305)" transform="matrix(1,0,0,1,-412.5,-612.5)"/><rect width="900" height="900" fill="url(#SvgjsLinearGradient1307)" transform="matrix(1,0,0,1,-375,-575)"/><rect width="850" height="850" fill="url(#SvgjsLinearGradient1308)" transform="matrix(1,0,0,1,-337.5,-537.5)"/><rect width="800" height="800" fill="url(#SvgjsLinearGradient1305)" transform="matrix(1,0,0,1,-300,-500)"/><rect width="750" height="750" fill="url(#SvgjsLinearGradient1306)" transform="matrix(1,0,0,1,-262.5,-462.5)"/><rect width="700" height="700" fill="url(#SvgjsLinearGradient1305)" transform="matrix(1,0,0,1,-225,-425)"/><rect width="650" height="650" fill="url(#SvgjsLinearGradient1306)" transform="matrix(1,0,0,1,-187.5,-387.5)"/><rect width="600" height="600" fill="url(#SvgjsLinearGradient1305)" transform="matrix(1,0,0,1,-150,-350)"/><rect width="550" height="550" fill="url(#SvgjsLinearGradient1306)" transform="matrix(1,0,0,1,-112.5,-312.5)"/><rect width="500" height="500" fill="url(#SvgjsLinearGradient1306)" transform="matrix(1,0,0,1,-75,-275)"/><rect width="450" height="450" fill="url(#SvgjsLinearGradient1307)" transform="matrix(1,0,0,1,-37.5,-237.5)"/><rect width="400" height="400" fill="url(#SvgjsLinearGradient1307)" transform="matrix(1,0,0,1,0,-200)"/><rect width="350" height="350" fill="url(#SvgjsLinearGradient1306)" transform="matrix(1,0,0,1,37.5,-162.5)"/><rect width="300" height="300" fill="url(#SvgjsLinearGradient1306)" transform="matrix(1,0,0,1,75,-125)"/><rect width="250" height="250" fill="url(#SvgjsLinearGradient1304)" transform="matrix(1,0,0,1,112.5,-87.5)"/><rect width="200" height="200" fill="url(#SvgjsLinearGradient1308)" transform="matrix(1,0,0,1,150,-50)"/><rect width="150" height="150" fill="url(#SvgjsLinearGradient1308)" transform="matrix(1,0,0,1,187.5,-12.5)"/><rect width="100" height="100" fill="url(#SvgjsLinearGradient1308)" transform="matrix(1,0,0,1,225,25)"/></svg>