<svg id="canvas" height="auto" xmlns="http://www.w3.org/2000/svg" version="1.1" xmlns:xlink="http://www.w3.org/1999/xlink" viewBox="0 0 300 100" width="auto" style="width: auto; height: auto;"><defs><linearGradient gradientTransform="matrix(1,0,0,1,0,0)" id="SvgjsLinearGradient1078"><stop stop-color="#b072e3" offset="0"/><stop stop-color="hsl(333, 67%, 67%)" offset="1"/></linearGradient><linearGradient gradientTransform="matrix(1,0,0,1,0,0)" id="SvgjsLinearGradient1080"><stop stop-color="#72dee3" offset="0"/><stop stop-color="hsl(243, 67%, 67%)" offset="1"/></linearGradient><linearGradient gradientTransform="matrix(1,0,0,1,0,0)" id="SvgjsLinearGradient1079"><stop stop-color="#e47974" offset="0"/><stop stop-color="#dfe474" offset="1"/></linearGradient><linearGradient gradientTransform="matrix(1,0,0,1,0,0)" id="SvgjsLinearGradient1081"><stop stop-color="#a5e372" offset="0"/><stop stop-color="hsl(153, 67%, 67%)" offset="1"/></linearGradient></defs><polygon points="1307.7027099058362,0 2615.405419811672,950.1016327344473 2115.9074318079865,2487.3983672655527 499.4979880036858,2487.3983672655527 0,950.1016327344469" fill="url(#SvgjsLinearGradient1078)" transform="matrix(1,0,0,1,-687.5,-687.5)"/><polygon points="1283.9262969984572,0 2567.852593996915,932.827057593821 2077.436387593296,2442.172942406179 490.4162064036186,2442.172942406179 0,932.8270575938205" fill="url(#SvgjsLinearGradient1078)" transform="matrix(1,0,0,1,-675,-675)"/><polygon points="1260.1498840910783,0 2520.299768182156,915.5524824531947 2038.9653433786054,2396.947517546805 481.33442480355154,2396.947517546805 0,915.5524824531942" fill="url(#SvgjsLinearGradient1078)" transform="matrix(1,0,0,1,-662.5,-662.5)"/><polygon points="1236.3734711836996,0 2472.7469423673992,898.2779073125685 2000.4942991639145,2351.7220926874315 472.2526432034847,2351.7220926874315 0,898.277907312568" fill="url(#SvgjsLinearGradient1079)" transform="matrix(1,0,0,1,-650,-650)"/><polygon points="1212.5970582763207,0 2425.1941165526414,881.003332171942 1962.0232549492239,2306.496667828058 463.1708616034176,2306.496667828058 0,881.0033321719416" fill="url(#SvgjsLinearGradient1080)" transform="matrix(1,0,0,1,-637.5,-637.5)"/><polygon points="1188.820645368942,0 2377.6412907378835,863.7287570313158 1923.5522107345334,2261.2712429686844 454.08908000335066,2261.2712429686844 0,863.7287570313154" fill="url(#SvgjsLinearGradient1079)" transform="matrix(1,0,0,1,-625,-625)"/><polygon points="1165.044232461563,0 2330.0884649231266,846.4541818906894 1885.0811665198428,2216.045818109311 445.0072984032836,2216.045818109311 0,846.454181890689" fill="url(#SvgjsLinearGradient1081)" transform="matrix(1,0,0,1,-612.5,-612.5)"/><polygon points="1141.2678195541841,0 2282.535639108368,829.1796067500632 1846.610122305152,2170.820393249937 435.9255168032165,2170.820393249937 0,829.1796067500627" fill="url(#SvgjsLinearGradient1079)" transform="matrix(1,0,0,1,-600,-600)"/><polygon points="1117.4914066468054,0 2234.982813293611,811.9050316094368 1808.1390780904612,2125.5949683905633 426.84373520314966,2125.5949683905633 0,811.9050316094365" fill="url(#SvgjsLinearGradient1078)" transform="matrix(1,0,0,1,-587.5,-587.5)"/><polygon points="1093.7149937394265,0 2187.429987478853,794.6304564688105 1769.6680338757706,2080.3695435311897 417.7619536030826,2080.3695435311897 0,794.63045646881" fill="url(#SvgjsLinearGradient1079)" transform="matrix(1,0,0,1,-575,-575)"/><polygon points="1069.9385808320478,0 2139.877161664095,777.3558813281842 1731.1969896610801,2035.144118671816 408.6801720030156,2035.144118671816 0,777.3558813281838" fill="url(#SvgjsLinearGradient1078)" transform="matrix(1,0,0,1,-562.5,-562.5)"/><polygon points="1046.162167924669,0 2092.3243358493382,760.0813061875579 1692.7259454463895,1989.9186938124421 399.59839040294855,1989.9186938124421 0,760.0813061875575" fill="url(#SvgjsLinearGradient1080)" transform="matrix(1,0,0,1,-550,-550)"/><polygon points="1022.3857550172901,0 2044.7715100345804,742.8067310469315 1654.2549012316986,1944.6932689530686 390.5166088028816,1944.6932689530686 0,742.8067310469312" fill="url(#SvgjsLinearGradient1078)" transform="matrix(1,0,0,1,-537.5,-537.5)"/><polygon points="998.6093421099112,0 1997.2186842198225,725.5321559063052 1615.783857017008,1899.4678440936948 381.4348272028145,1899.4678440936948 0,725.5321559063049" fill="url(#SvgjsLinearGradient1078)" transform="matrix(1,0,0,1,-525,-525)"/><polygon points="974.8329292025323,0 1949.6658584050647,708.257580765679 1577.3128128023172,1854.242419234321 372.35304560274744,1854.242419234321 0,708.2575807656785" fill="url(#SvgjsLinearGradient1080)" transform="matrix(1,0,0,1,-512.5,-512.5)"/><polygon points="951.0565162951536,0 1902.1130325903068,690.9830056250526 1538.8417685876266,1809.0169943749474 363.2712640026805,1809.0169943749474 0,690.9830056250523" fill="url(#SvgjsLinearGradient1080)" transform="matrix(1,0,0,1,-500,-500)"/><polygon points="927.2801033877748,0 1854.5602067755494,673.7084304844263 1500.3707243729361,1763.7915695155739 354.1894824026135,1763.7915695155739 0,673.7084304844259" fill="url(#SvgjsLinearGradient1079)" transform="matrix(1,0,0,1,-487.5,-487.5)"/><polygon points="903.503690480396,0 1807.007380960792,656.4338553437999 1461.8996801582452,1718.5661446562 345.10770080254656,1718.5661446562 0,656.4338553437997" fill="url(#SvgjsLinearGradient1079)" transform="matrix(1,0,0,1,-475,-475)"/><polygon points="879.727277573017,0 1759.4545551460342,639.1592802031737 1423.4286359435546,1673.3407197968263 336.0259192024794,1673.3407197968263 0,639.1592802031734" fill="url(#SvgjsLinearGradient1080)" transform="matrix(1,0,0,1,-462.5,-462.5)"/><polygon points="855.9508646656382,0 1711.9017293312763,621.8847050625474 1384.957591728864,1628.1152949374527 326.9441376024124,1628.1152949374527 0,621.884705062547" fill="url(#SvgjsLinearGradient1081)" transform="matrix(1,0,0,1,-450,-450)"/><polygon points="832.1744517582594,0 1664.3489035165185,604.610129921921 1346.4865475141733,1582.8898700780792 317.86235600234545,1582.8898700780792 0,604.6101299219208" fill="url(#SvgjsLinearGradient1080)" transform="matrix(1,0,0,1,-437.5,-437.5)"/><polygon points="808.3980388508805,0 1616.796077701761,587.3355547812947 1308.0155032994828,1537.6644452187052 308.7805744022785,1537.6644452187052 0,587.3355547812944" fill="url(#SvgjsLinearGradient1079)" transform="matrix(1,0,0,1,-425,-425)"/><polygon points="784.6216259435016,0 1569.2432518870032,570.0609796406684 1269.544459084792,1492.4390203593316 299.69879280221136,1492.4390203593316 0,570.0609796406682" fill="url(#SvgjsLinearGradient1080)" transform="matrix(1,0,0,1,-412.5,-412.5)"/><polygon points="760.8452130361228,0 1521.6904260722458,552.7864045000421 1231.0734148701013,1447.213595499958 290.6170112021444,1447.213595499958 0,552.7864045000418" fill="url(#SvgjsLinearGradient1080)" transform="matrix(1,0,0,1,-400,-400)"/><polygon points="737.068800128744,0 1474.137600257488,535.5118293594157 1192.6023706554106,1401.9881706405843 281.5352296020774,1401.9881706405843 0,535.5118293594155" fill="url(#SvgjsLinearGradient1079)" transform="matrix(1,0,0,1,-387.5,-387.5)"/><polygon points="713.2923872213652,0 1426.5847744427301,518.2372542187894 1154.13132644072,1356.7627457812105 272.4534480020104,1356.7627457812105 0,518.2372542187892" fill="url(#SvgjsLinearGradient1078)" transform="matrix(1,0,0,1,-375,-375)"/><polygon points="689.5159743139864,0 1379.0319486279727,500.96267907816315 1115.6602822260295,1311.537320921837 263.3716664019434,1311.537320921837 0,500.96267907816286" fill="url(#SvgjsLinearGradient1081)" transform="matrix(1,0,0,1,-362.5,-362.5)"/><polygon points="665.7395614066074,0 1331.4791228132149,483.6881039375368 1077.1892380113386,1266.3118960624633 254.28988480187633,1266.3118960624633 0,483.6881039375366" fill="url(#SvgjsLinearGradient1081)" transform="matrix(1,0,0,1,-350,-350)"/><polygon points="641.9631484992286,0 1283.9262969984575,466.4135287969105 1038.718193796648,1221.0864712030896 245.2081032018093,1221.0864712030896 0,466.41352879691027" fill="url(#SvgjsLinearGradient1079)" transform="matrix(1,0,0,1,-337.5,-337.5)"/><polygon points="618.1867355918498,0 1236.3734711836996,449.13895365628423 1000.2471495819573,1175.8610463437158 236.12632160174235,1175.8610463437158 0,449.138953656284" fill="url(#SvgjsLinearGradient1080)" transform="matrix(1,0,0,1,-325,-325)"/><polygon points="594.410322684471,0 1188.8206453689418,431.8643785156579 961.7761053672667,1130.6356214843422 227.04454000167533,1130.6356214843422 0,431.8643785156577" fill="url(#SvgjsLinearGradient1078)" transform="matrix(1,0,0,1,-312.5,-312.5)"/><polygon points="570.6339097770921,0 1141.267819554184,414.5898033750316 923.305061152576,1085.4101966249684 217.96275840160826,1085.4101966249684 0,414.58980337503135" fill="url(#SvgjsLinearGradient1080)" transform="matrix(1,0,0,1,-300,-300)"/><polygon points="546.8574968697133,0 1093.7149937394265,397.31522823440525 884.8340169378853,1040.1847717655949 208.8809768015413,1040.1847717655949 0,397.315228234405" fill="url(#SvgjsLinearGradient1081)" transform="matrix(1,0,0,1,-287.5,-287.5)"/><polygon points="523.0810839623344,0 1046.1621679246691,380.04065309377893 846.3629727231947,994.9593469062211 199.79919520147428,994.9593469062211 0,380.04065309377876" fill="url(#SvgjsLinearGradient1078)" transform="matrix(1,0,0,1,-275,-275)"/><polygon points="499.3046710549556,0 998.6093421099113,362.7660779531526 807.891928508504,949.7339220468474 190.71741360140726,949.7339220468474 0,362.76607795315243" fill="url(#SvgjsLinearGradient1081)" transform="matrix(1,0,0,1,-262.5,-262.5)"/><polygon points="475.5282581475768,0 951.0565162951534,345.4915028125263 769.4208842938133,904.5084971874737 181.63563200134024,904.5084971874737 0,345.49150281252616" fill="url(#SvgjsLinearGradient1080)" transform="matrix(1,0,0,1,-250,-250)"/><polygon points="451.751845240198,0 903.503690480396,328.21692767189995 730.9498400791226,859.2830723281 172.55385040127328,859.2830723281 0,328.21692767189984" fill="url(#SvgjsLinearGradient1080)" transform="matrix(1,0,0,1,-237.5,-237.5)"/><polygon points="427.9754323328191,0 855.9508646656382,310.9423525312737 692.478795864432,814.0576474687264 163.4720688012062,814.0576474687264 0,310.9423525312735" fill="url(#SvgjsLinearGradient1079)" transform="matrix(1,0,0,1,-225,-225)"/><polygon points="404.19901942544027,0 808.3980388508805,293.66777739064736 654.0077516497414,768.8322226093526 154.39028720113924,768.8322226093526 0,293.6677773906472" fill="url(#SvgjsLinearGradient1080)" transform="matrix(1,0,0,1,-212.5,-212.5)"/><polygon points="380.4226065180614,0 760.8452130361229,276.39320225002103 615.5367074350506,723.606797749979 145.3085056010722,723.606797749979 0,276.3932022500209" fill="url(#SvgjsLinearGradient1080)" transform="matrix(1,0,0,1,-200,-200)"/><polygon points="356.6461936106826,0 713.2923872213651,259.1186271093947 577.06566322036,678.3813728906052 136.2267240010052,678.3813728906052 0,259.1186271093946" fill="url(#SvgjsLinearGradient1079)" transform="matrix(1,0,0,1,-187.5,-187.5)"/><polygon points="332.8697807033037,0 665.7395614066074,241.8440519687684 538.5946190056693,633.1559480312317 127.14494240093816,633.1559480312317 0,241.8440519687683" fill="url(#SvgjsLinearGradient1078)" transform="matrix(1,0,0,1,-175,-175)"/><polygon points="309.0933677959249,0 618.1867355918498,224.56947682814211 500.12357479097864,587.9305231718579 118.06316080087117,587.9305231718579 0,224.569476828142" fill="url(#SvgjsLinearGradient1081)" transform="matrix(1,0,0,1,-162.5,-162.5)"/><polygon points="285.31695488854604,0 570.633909777092,207.2949016875158 461.652530576288,542.7050983124842 108.98137920080413,542.7050983124842 0,207.29490168751568" fill="url(#SvgjsLinearGradient1081)" transform="matrix(1,0,0,1,-150,-150)"/><polygon points="261.5405419811672,0 523.0810839623346,190.02032654688946 423.18148636159736,497.47967345311054 99.89959760073714,497.47967345311054 0,190.02032654688938" fill="url(#SvgjsLinearGradient1079)" transform="matrix(1,0,0,1,-137.5,-137.5)"/><polygon points="237.7641290737884,0 475.5282581475767,172.74575140626314 384.71044214690664,452.25424859373686 90.81781600067012,452.25424859373686 0,172.74575140626308" fill="url(#SvgjsLinearGradient1078)" transform="matrix(1,0,0,1,-125,-125)"/><polygon points="213.98771616640954,0 427.9754323328191,155.47117626563684 346.239397932216,407.0288237343632 81.7360344006031,407.0288237343632 0,155.47117626563676" fill="url(#SvgjsLinearGradient1079)" transform="matrix(1,0,0,1,-112.5,-112.5)"/><polygon points="190.2113032590307,0 380.42260651806146,138.19660112501052 307.7683537175253,361.8033988749895 72.6542528005361,361.8033988749895 0,138.19660112501046" fill="url(#SvgjsLinearGradient1079)" transform="matrix(1,0,0,1,-100,-100)"/><polygon points="166.43489035165186,0 332.8697807033037,120.9220259843842 269.29730950283465,316.57797401561584 63.57247120046908,316.57797401561584 0,120.92202598438415" fill="url(#SvgjsLinearGradient1080)" transform="matrix(1,0,0,1,-87.5,-87.5)"/><polygon points="142.65847744427302,0 285.316954888546,103.6474508437579 230.826265288144,271.3525491562421 54.490689600402064,271.3525491562421 0,103.64745084375784" fill="url(#SvgjsLinearGradient1080)" transform="matrix(1,0,0,1,-75,-75)"/><polygon points="118.8820645368942,0 237.76412907378835,86.37287570313157 192.35522107345332,226.12712429686843 45.40890800033506,226.12712429686843 0,86.37287570313154" fill="url(#SvgjsLinearGradient1078)" transform="matrix(1,0,0,1,-62.5,-62.5)"/><polygon points="95.10565162951535,0 190.21130325903073,69.09830056250526 153.88417685876266,180.90169943749476 36.32712640026805,180.90169943749476 0,69.09830056250523" fill="url(#SvgjsLinearGradient1081)" transform="matrix(1,0,0,1,-50,-50)"/><polygon points="71.32923872213651,0 142.658477444273,51.82372542187895 115.413132644072,135.67627457812105 27.245344800201032,135.67627457812105 0,51.82372542187892" fill="url(#SvgjsLinearGradient1079)" transform="matrix(1,0,0,1,-37.5,-37.5)"/><polygon points="47.552825814757675,0 95.10565162951536,34.54915028125263 76.94208842938133,90.45084971874738 18.163563200134025,90.45084971874738 0,34.549150281252615" fill="url(#SvgjsLinearGradient1081)" transform="matrix(1,0,0,1,-25,-25)"/></svg>