<svg id="canvas" height="auto" xmlns="http://www.w3.org/2000/svg" version="1.1" xmlns:xlink="http://www.w3.org/1999/xlink" viewBox="0 0 300 100" width="auto" style="width: auto; height: auto;"><defs><linearGradient gradientTransform="matrix(1,0,0,1,0,0)" id="SvgjsLinearGradient1288"><stop stop-color="#9bf6ff" offset="0"/><stop stop-color="#a49bff" offset="1"/></linearGradient><linearGradient gradientTransform="matrix(1,0,0,1,0,0)" id="SvgjsLinearGradient1289"><stop stop-color="#caffbf" offset="0"/><stop stop-color="#bffff4" offset="1"/></linearGradient><linearGradient gradientTransform="matrix(1,0,0,1,0,0)" id="SvgjsLinearGradient1292"><stop stop-color="#fdffb6" offset="0"/><stop stop-color="#b6ffb8" offset="1"/></linearGradient><linearGradient gradientTransform="matrix(1,0,0,1,0,0)" id="SvgjsLinearGradient1291"><stop stop-color="#ffc6ff" offset="0"/><stop stop-color="#ffc6c6" offset="1"/></linearGradient><linearGradient gradientTransform="matrix(1,0,0,1,0,0)" id="SvgjsLinearGradient1293"><stop stop-color="#bdb2ff" offset="0"/><stop stop-color="#ffb2f4" offset="1"/></linearGradient><linearGradient gradientTransform="matrix(1,0,0,1,0,0)" id="SvgjsLinearGradient1286"><stop stop-color="#ffffff" offset="0"/><stop stop-color="#ffffff" offset="1"/></linearGradient><linearGradient gradientTransform="matrix(1,0,0,1,0,0)" id="SvgjsLinearGradient1287"><stop stop-color="#ffd6a5" offset="0"/><stop stop-color="#ceffa5" offset="1"/></linearGradient><linearGradient gradientTransform="matrix(1,0,0,1,0,0)" id="SvgjsLinearGradient1290"><stop stop-color="#ffadad" offset="0"/><stop stop-color="#ffffad" offset="1"/></linearGradient><linearGradient gradientTransform="matrix(1,0,0,1,0,0)" id="SvgjsLinearGradient1294"><stop stop-color="#a0c4ff" offset="0"/><stop stop-color="#dba0ff" offset="1"/></linearGradient></defs><polygon points="1307.7027099058362,2062.5 499.4979880036858,2487.3983672655527 653.8513549529181,1587.4491836327763 0,950.1016327344469 903.6003489547609,818.8008163672237 1307.702709905836,0 1711.8050708569112,818.8008163672235 2615.405419811672,950.1016327344469 1961.5540648587541,1587.449183632776 2115.9074318079875,2487.3983672655518" fill="url(#SvgjsLinearGradient1286)" transform="matrix(1,0,0,1,-1762.5,-1962.5)"/><polygon points="1283.9262969984572,2025 490.4162064036186,2442.172942406179 641.9631484992286,1558.5864712030896 0,932.8270575938205 887.1712517010378,803.9135287969106 1283.926296998457,0 1680.6813422958764,803.9135287969104 2567.852593996915,932.8270575938207 1925.889445497686,1558.5864712030893 2077.436387593297,2442.172942406178" fill="url(#SvgjsLinearGradient1287)" transform="matrix(1,0,0,1,-1725,-1925)"/><polygon points="1260.1498840910783,1987.5 481.33442480355154,2396.947517546805 630.0749420455392,1529.7237587734028 0,915.5524824531942 870.7421544473148,789.0262412265973 1260.149884091078,0 1649.5576137348417,789.0262412265972 2520.299768182156,915.5524824531943 1890.2248261366176,1529.7237587734026 2038.9653433786063,2396.947517546804" fill="url(#SvgjsLinearGradient1288)" transform="matrix(1,0,0,1,-1687.5,-1887.5)"/><polygon points="1236.3734711836996,1950 472.2526432034847,2351.7220926874315 618.1867355918498,1500.8610463437158 0,898.277907312568 854.3130571935919,774.1389536562842 1236.3734711836994,0 1618.433885173807,774.1389536562841 2472.7469423673992,898.277907312568 1854.5602067755494,1500.8610463437158 2000.494299163916,2351.7220926874306" fill="url(#SvgjsLinearGradient1287)" transform="matrix(1,0,0,1,-1650,-1850)"/><polygon points="1212.5970582763207,1912.5 463.1708616034176,2306.496667828058 606.2985291381603,1471.998333914029 0,881.0033321719416 837.883959939869,759.2516660859711 1212.5970582763205,0 1587.310156612772,759.2516660859709 2425.1941165526414,881.0033321719418 1818.8955874144813,1471.9983339140288 1962.0232549492252,2306.496667828057" fill="url(#SvgjsLinearGradient1289)" transform="matrix(1,0,0,1,-1612.5,-1812.5)"/><polygon points="1188.820645368942,1875 454.08908000335066,2261.2712429686844 594.410322684471,1443.1356214843422 0,863.7287570313154 821.4548626861463,744.3643785156579 1188.8206453689418,0 1556.1864280517375,744.3643785156578 2377.6412907378835,863.7287570313154 1783.2309680534129,1443.135621484342 1923.5522107345346,2261.2712429686835" fill="url(#SvgjsLinearGradient1287)" transform="matrix(1,0,0,1,-1575,-1775)"/><polygon points="1165.044232461563,1837.5 445.0072984032836,2216.045818109311 582.5221162307815,1414.2729090546554 0,846.454181890689 805.0257654324232,729.4770909453448 1165.0442324615628,0 1525.0626994907027,729.4770909453446 2330.0884649231266,846.4541818906891 1747.5663486923447,1414.2729090546552 1885.0811665198437,2216.04581810931" fill="url(#SvgjsLinearGradient1289)" transform="matrix(1,0,0,1,-1537.5,-1737.5)"/><polygon points="1141.2678195541841,1800 435.9255168032165,2170.820393249937 570.6339097770921,1385.4101966249684 0,829.1796067500627 788.5966681787002,714.5898033750316 1141.267819554184,0 1493.938970929668,714.5898033750315 2282.535639108368,829.1796067500628 1711.9017293312763,1385.4101966249682 1846.610122305153,2170.8203932499364" fill="url(#SvgjsLinearGradient1286)" transform="matrix(1,0,0,1,-1500,-1700)"/><polygon points="1117.4914066468054,1762.5 426.84373520314966,2125.5949683905633 558.7457033234027,1356.5474841952816 0,811.9050316094365 772.1675709249773,699.7025158047184 1117.4914066468052,0 1462.8152423686333,699.7025158047184 2234.982813293611,811.9050316094365 1676.2371099702082,1356.5474841952814 1808.1390780904626,2125.5949683905624" fill="url(#SvgjsLinearGradient1287)" transform="matrix(1,0,0,1,-1462.5,-1662.5)"/><polygon points="1093.7149937394265,1725 417.7619536030826,2080.3695435311897 546.8574968697133,1327.6847717655949 0,794.63045646881 755.7384736712544,684.8152282344053 1093.7149937394263,0 1431.6915138075983,684.8152282344051 2187.429987478853,794.6304564688102 1640.57249060914,1327.6847717655946 1769.6680338757717,2080.369543531189" fill="url(#SvgjsLinearGradient1290)" transform="matrix(1,0,0,1,-1425,-1625)"/><polygon points="1069.9385808320478,1687.5 408.6801720030156,2035.144118671816 534.9692904160239,1298.8220593359079 0,777.3558813281838 739.3093764175317,669.9279406640921 1069.9385808320476,0 1400.567785246564,669.9279406640919 2139.877161664095,777.3558813281838 1604.9078712480716,1298.8220593359079 1731.196989661081,2035.1441186718152" fill="url(#SvgjsLinearGradient1289)" transform="matrix(1,0,0,1,-1387.5,-1587.5)"/><polygon points="1046.162167924669,1650 399.59839040294855,1989.9186938124421 523.0810839623344,1269.959346906221 0,760.0813061875575 722.8802791638086,655.0406530937789 1046.1621679246687,0 1369.444056685529,655.0406530937788 2092.3243358493382,760.0813061875576 1569.2432518870035,1269.959346906221 1692.7259454463904,1989.9186938124415" fill="url(#SvgjsLinearGradient1291)" transform="matrix(1,0,0,1,-1350,-1550)"/><polygon points="1022.3857550172901,1612.5 390.5166088028816,1944.6932689530686 511.192877508645,1241.0966344765343 0,742.8067310469312 706.4511819100857,640.1533655234658 1022.3857550172899,0 1338.3203281244942,640.1533655234657 2044.7715100345804,742.8067310469312 1533.578632525935,1241.096634476534 1654.2549012317,1944.6932689530677" fill="url(#SvgjsLinearGradient1287)" transform="matrix(1,0,0,1,-1312.5,-1512.5)"/><polygon points="998.6093421099112,1575 381.4348272028145,1899.4678440936948 499.3046710549555,1212.2339220468475 0,725.5321559063049 690.0220846563627,625.2660779531527 998.6093421099109,0 1307.1965995634596,625.2660779531525 1997.2186842198225,725.532155906305 1497.914013164867,1212.2339220468473 1615.7838570170088,1899.467844093694" fill="url(#SvgjsLinearGradient1290)" transform="matrix(1,0,0,1,-1275,-1475)"/><polygon points="974.8329292025323,1537.5 372.35304560274744,1854.242419234321 487.41646460126617,1183.3712096171605 0,708.2575807656785 673.5929874026398,610.3787903828395 974.8329292025321,0 1276.0728710024248,610.3787903828394 1949.6658584050647,708.2575807656787 1462.2493938037985,1183.3712096171605 1577.3128128023181,1854.2424192343206" fill="url(#SvgjsLinearGradient1288)" transform="matrix(1,0,0,1,-1237.5,-1437.5)"/><polygon points="951.0565162951535,1500 363.2712640026805,1809.0169943749474 475.5282581475768,1154.5084971874737 0,690.9830056250523 657.163890148917,595.4915028125263 951.0565162951533,0 1244.94914244139,595.4915028125263 1902.1130325903068,690.9830056250523 1426.5847744427301,1154.5084971874735 1538.8417685876275,1809.0169943749468" fill="url(#SvgjsLinearGradient1286)" transform="matrix(1,0,0,1,-1200,-1400)"/><polygon points="927.2801033877747,1462.5 354.1894824026135,1763.7915695155739 463.64005169388736,1125.645784757787 0,673.7084304844259 640.734792895194,580.6042152422132 927.2801033877745,0 1213.8254138803552,580.6042152422131 1854.5602067755494,673.708430484426 1390.9201550816622,1125.6457847577867 1500.370724372937,1763.791569515573" fill="url(#SvgjsLinearGradient1289)" transform="matrix(1,0,0,1,-1162.5,-1362.5)"/><polygon points="903.5036904803959,1425 345.10770080254656,1718.5661446562 451.75184524019795,1096.7830723281002 0,656.4338553437997 624.3056956414711,565.7169276719001 903.5036904803957,0 1182.7016853193204,565.7169276718998 1807.007380960792,656.4338553437997 1355.2555357205938,1096.7830723281 1461.8996801582462,1718.5661446561994" fill="url(#SvgjsLinearGradient1286)" transform="matrix(1,0,0,1,-1125,-1325)"/><polygon points="879.727277573017,1387.5 336.0259192024794,1673.3407197968263 439.8636387865085,1067.9203598984132 0,639.1592802031734 607.8765983877481,550.8296401015868 879.7272775730169,0 1151.5779567582858,550.8296401015867 1759.4545551460342,639.1592802031735 1319.5909163595256,1067.9203598984132 1423.4286359435555,1673.3407197968259" fill="url(#SvgjsLinearGradient1287)" transform="matrix(1,0,0,1,-1087.5,-1287.5)"/><polygon points="855.9508646656382,1350 326.9441376024124,1628.1152949374527 427.9754323328191,1039.0576474687264 0,621.884705062547 591.4475011340253,535.9423525312736 855.950864665638,0 1120.454228197251,535.9423525312736 1711.9017293312763,621.884705062547 1283.9262969984572,1039.0576474687261 1384.9575917288648,1628.115294937452" fill="url(#SvgjsLinearGradient1289)" transform="matrix(1,0,0,1,-1050,-1250)"/><polygon points="832.1744517582594,1312.5 317.86235600234545,1582.8898700780792 416.0872258791297,1010.1949350390396 0,604.6101299219208 575.0184038803023,521.0550649609605 832.1744517582592,0 1089.3304996362162,521.0550649609604 1664.3489035165185,604.6101299219208 1248.2616776373889,1010.1949350390394 1346.4865475141742,1582.8898700780783" fill="url(#SvgjsLinearGradient1292)" transform="matrix(1,0,0,1,-1012.5,-1212.5)"/><polygon points="808.3980388508805,1275 308.7805744022785,1537.6644452187052 404.19901942544027,981.3322226093527 0,587.3355547812944 558.5893066265794,506.16777739064736 808.3980388508804,0 1058.2067710751815,506.1677773906473 1616.796077701761,587.3355547812945 1212.597058276321,981.3322226093526 1308.0155032994835,1537.6644452187047" fill="url(#SvgjsLinearGradient1287)" transform="matrix(1,0,0,1,-975,-1175)"/><polygon points="784.6216259435016,1237.5 299.69879280221136,1492.4390203593316 392.3108129717508,952.4695101796658 0,570.0609796406682 542.1602093728563,491.2804898203342 784.6216259435015,0 1027.0830425141467,491.28048982033414 1569.2432518870032,570.0609796406682 1176.9324389152525,952.4695101796657 1269.5444590847926,1492.4390203593312" fill="url(#SvgjsLinearGradient1293)" transform="matrix(1,0,0,1,-937.5,-1137.5)"/><polygon points="760.8452130361228,1200 290.6170112021444,1447.213595499958 380.4226065180614,923.606797749979 0,552.7864045000418 525.7311121191335,476.3932022500211 760.8452130361227,0 995.959313953112,476.393202250021 1521.6904260722458,552.7864045000418 1141.2678195541844,923.6067977499789 1231.0734148701022,1447.2135954999576" fill="url(#SvgjsLinearGradient1292)" transform="matrix(1,0,0,1,-900,-1100)"/><polygon points="737.068800128744,1162.5 281.5352296020774,1401.9881706405843 368.534400064372,894.7440853202921 0,535.5118293594155 509.30201486541057,461.5059146797079 737.0688001287439,0 964.8355853920773,461.5059146797078 1474.137600257488,535.5118293594155 1105.603200193116,894.744085320292 1192.6023706554113,1401.9881706405838" fill="url(#SvgjsLinearGradient1293)" transform="matrix(1,0,0,1,-862.5,-1062.5)"/><polygon points="713.2923872213652,1125 272.4534480020104,1356.7627457812105 356.6461936106826,865.8813728906053 0,518.2372542187892 492.87291761168774,446.61862710939477 713.2923872213651,0 933.7118568310425,446.61862710939465 1426.5847744427301,518.2372542187893 1069.9385808320476,865.8813728906052 1154.1313264407208,1356.76274578121" fill="url(#SvgjsLinearGradient1292)" transform="matrix(1,0,0,1,-825,-1025)"/><polygon points="689.5159743139864,1087.5 263.3716664019434,1311.537320921837 344.7579871569932,837.0186604609185 0,500.96267907816286 476.4438203579648,431.7313395390816 689.5159743139862,0 902.5881282700078,431.7313395390815 1379.0319486279727,500.962679078163 1034.2739614709797,837.0186604609183 1115.66028222603,1311.5373209218365" fill="url(#SvgjsLinearGradient1293)" transform="matrix(1,0,0,1,-787.5,-987.5)"/><polygon points="665.7395614066074,1050 254.28988480187633,1266.3118960624633 332.8697807033037,808.1559480312317 0,483.6881039375366 460.0147231042418,416.84405196876844 665.7395614066073,0 871.4643997089729,416.8440519687683 1331.4791228132149,483.68810393753665 998.6093421099113,808.1559480312316 1077.1892380113393,1266.311896062463" fill="url(#SvgjsLinearGradient1294)" transform="matrix(1,0,0,1,-750,-950)"/><polygon points="641.9631484992286,1012.5 245.2081032018093,1221.0864712030896 320.9815742496143,779.2932356015448 0,466.41352879691027 443.5856258505189,401.9567643984553 641.9631484992285,0 840.3406711479382,401.9567643984552 1283.9262969984575,466.4135287969103 962.944722748843,779.2932356015447 1038.7181937966484,1221.086471203089" fill="url(#SvgjsLinearGradient1289)" transform="matrix(1,0,0,1,-712.5,-912.5)"/><polygon points="618.1867355918498,975 236.12632160174235,1175.8610463437158 309.0933677959249,750.4305231718579 0,449.138953656284 427.15652859679597,387.0694768281421 618.1867355918497,0 809.2169425869035,387.06947682814206 1236.3734711836996,449.138953656284 927.2801033877747,750.4305231718579 1000.247149581958,1175.8610463437153" fill="url(#SvgjsLinearGradient1286)" transform="matrix(1,0,0,1,-675,-875)"/><polygon points="594.410322684471,937.5 227.04454000167533,1130.6356214843422 297.2051613422355,721.5678107421711 0,431.8643785156577 410.72743134307314,372.18218925782895 594.4103226844709,0 778.0932140258687,372.1821892578289 1188.8206453689418,431.8643785156577 891.6154840267064,721.567810742171 961.7761053672673,1130.6356214843418" fill="url(#SvgjsLinearGradient1287)" transform="matrix(1,0,0,1,-637.5,-837.5)"/><polygon points="570.6339097770921,900 217.96275840160826,1085.4101966249684 285.31695488854604,692.7050983124842 0,414.58980337503135 394.2983340893501,357.2949016875158 570.633909777092,0 746.969485464834,357.29490168751573 1141.267819554184,414.5898033750314 855.9508646656382,692.7050983124841 923.3050611525765,1085.4101966249682" fill="url(#SvgjsLinearGradient1290)" transform="matrix(1,0,0,1,-600,-800)"/><polygon points="546.8574968697133,862.5 208.8809768015413,1040.1847717655949 273.42874843485663,663.8423858827974 0,397.315228234405 377.8692368356272,342.4076141172026 546.8574968697131,0 715.8457569037992,342.40761411720257 1093.7149937394265,397.3152282344051 820.28624530457,663.8423858827973 884.8340169378858,1040.1847717655944" fill="url(#SvgjsLinearGradient1292)" transform="matrix(1,0,0,1,-562.5,-762.5)"/><polygon points="523.0810839623344,825 199.79919520147428,994.9593469062211 261.5405419811672,634.9796734531105 0,380.04065309377876 361.4401395819043,327.52032654688946 523.0810839623343,0 684.7220283427645,327.5203265468894 1046.1621679246691,380.0406530937788 784.6216259435017,634.9796734531105 846.3629727231952,994.9593469062207" fill="url(#SvgjsLinearGradient1293)" transform="matrix(1,0,0,1,-525,-725)"/><polygon points="499.3046710549556,787.5 190.71741360140726,949.7339220468474 249.65233552747776,606.1169610234238 0,362.76607795315243 345.01104232818136,312.63303897657636 499.30467105495546,0 653.5982997817298,312.63303897657624 998.6093421099113,362.7660779531525 748.9570065824335,606.1169610234236 807.8919285085044,949.733922046847" fill="url(#SvgjsLinearGradient1291)" transform="matrix(1,0,0,1,-487.5,-687.5)"/><polygon points="475.52825814757676,750 181.63563200134024,904.5084971874737 237.7641290737884,577.2542485937369 0,345.49150281252616 328.5819450744585,297.74575140626314 475.52825814757665,0 622.474571220695,297.74575140626314 951.0565162951534,345.49150281252616 713.2923872213651,577.2542485937367 769.4208842938137,904.5084971874734" fill="url(#SvgjsLinearGradient1287)" transform="matrix(1,0,0,1,-450,-650)"/><polygon points="451.75184524019795,712.5 172.55385040127328,859.2830723281 225.87592262009898,548.3915361640501 0,328.21692767189984 312.15284782073553,282.85846383595003 451.75184524019784,0 591.3508426596602,282.8584638359499 903.503690480396,328.21692767189984 677.6277678602969,548.39153616405 730.9498400791231,859.2830723280997" fill="url(#SvgjsLinearGradient1293)" transform="matrix(1,0,0,1,-412.5,-612.5)"/><polygon points="427.9754323328191,675 163.4720688012062,814.0576474687264 213.98771616640954,519.5288237343632 0,310.9423525312735 295.72375056701264,267.9711762656368 427.975432332819,0 560.2271140986255,267.9711762656368 855.9508646656382,310.9423525312735 641.9631484992286,519.5288237343631 692.4787958644324,814.057647468726" fill="url(#SvgjsLinearGradient1288)" transform="matrix(1,0,0,1,-375,-575)"/><polygon points="404.19901942544027,637.5 154.39028720113924,768.8322226093526 202.09950971272013,490.66611130467635 0,293.6677773906472 279.2946533132897,253.08388869532368 404.1990194254402,0 529.1033855375907,253.08388869532365 808.3980388508805,293.66777739064725 606.2985291381605,490.6661113046763 654.0077516497417,768.8322226093524" fill="url(#SvgjsLinearGradient1286)" transform="matrix(1,0,0,1,-337.5,-537.5)"/><polygon points="380.4226065180614,600 145.3085056010722,723.606797749979 190.2113032590307,461.8033988749895 0,276.3932022500209 262.86555605956676,238.19660112501055 380.42260651806134,0 497.979656976556,238.1966011250105 760.8452130361229,276.3932022500209 570.6339097770922,461.80339887498945 615.5367074350511,723.6067977499788" fill="url(#SvgjsLinearGradient1287)" transform="matrix(1,0,0,1,-300,-500)"/><polygon points="356.6461936106826,562.5 136.2267240010052,678.3813728906052 178.3230968053413,432.9406864453027 0,259.1186271093946 246.43645880584387,223.30931355469738 356.64619361068253,0 466.85592841552125,223.30931355469733 713.2923872213651,259.11862710939465 534.9692904160238,432.9406864453026 577.0656632203604,678.381372890605" fill="url(#SvgjsLinearGradient1292)" transform="matrix(1,0,0,1,-262.5,-462.5)"/><polygon points="332.8697807033037,525 127.14494240093816,633.1559480312317 166.43489035165186,404.07797401561584 0,241.8440519687683 230.0073615521209,208.42202598438422 332.86978070330366,0 435.73219985448645,208.42202598438416 665.7395614066074,241.84405196876833 499.30467105495563,404.0779740156158 538.5946190056696,633.1559480312314" fill="url(#SvgjsLinearGradient1287)" transform="matrix(1,0,0,1,-225,-425)"/><polygon points="309.0933677959249,487.5 118.06316080087117,587.9305231718579 154.54668389796245,375.21526158592894 0,224.569476828142 213.57826429839798,193.53473841407106 309.09336779592485,0 404.60847129345177,193.53473841407103 618.1867355918498,224.569476828142 463.64005169388736,375.21526158592894 500.123574790979,587.9305231718577" fill="url(#SvgjsLinearGradient1287)" transform="matrix(1,0,0,1,-187.5,-387.5)"/><polygon points="285.31695488854604,450 108.98137920080413,542.7050983124842 142.65847744427302,346.3525491562421 0,207.29490168751568 197.14916704467504,178.6474508437579 285.316954888546,0 373.484742732417,178.64745084375787 570.633909777092,207.2949016875157 427.9754323328191,346.35254915624205 461.65253057628826,542.7050983124841" fill="url(#SvgjsLinearGradient1293)" transform="matrix(1,0,0,1,-150,-350)"/><polygon points="261.5405419811672,412.5 99.89959760073714,497.47967345311054 130.7702709905836,317.48983672655527 0,190.02032654688938 180.72006979095215,163.76016327344473 261.54054198116717,0 342.36101417138224,163.7601632734447 523.0810839623346,190.0203265468894 392.31081297175086,317.48983672655527 423.1814863615976,497.47967345311037" fill="url(#SvgjsLinearGradient1292)" transform="matrix(1,0,0,1,-112.5,-312.5)"/><polygon points="237.76412907378838,375 90.81781600067012,452.25424859373686 118.8820645368942,288.62712429686843 0,172.74575140626308 164.29097253722924,148.87287570313157 237.76412907378833,0 311.2372856103475,148.87287570313157 475.5282581475767,172.74575140626308 356.64619361068253,288.6271242968684 384.71044214690687,452.2542485937367" fill="url(#SvgjsLinearGradient1286)" transform="matrix(1,0,0,1,-75,-275)"/><polygon points="213.98771616640954,337.5 81.7360344006031,407.0288237343632 106.99385808320477,259.7644118671816 0,155.47117626563676 147.86187528350632,133.9855881328184 213.9877161664095,0 280.11355704931276,133.9855881328184 427.9754323328191,155.47117626563676 320.9815742496143,259.76441186718154 346.2393979322162,407.028823734363" fill="url(#SvgjsLinearGradient1287)" transform="matrix(1,0,0,1,-37.5,-237.5)"/><polygon points="190.2113032590307,300 72.6542528005361,361.8033988749895 95.10565162951535,230.90169943749476 0,138.19660112501046 131.43277802978338,119.09830056250527 190.21130325903067,0 248.989828488278,119.09830056250524 380.42260651806146,138.19660112501046 285.3169548885461,230.90169943749473 307.76835371752554,361.8033988749894" fill="url(#SvgjsLinearGradient1293)" transform="matrix(1,0,0,1,0,-200)"/><polygon points="166.43489035165186,262.5 63.57247120046908,316.57797401561584 83.21744517582593,202.03898700780792 0,120.92202598438415 115.00368077606045,104.21101299219211 166.43489035165183,0 217.86609992724323,104.21101299219208 332.8697807033037,120.92202598438416 249.65233552747782,202.0389870078079 269.2973095028348,316.5779740156157" fill="url(#SvgjsLinearGradient1292)" transform="matrix(1,0,0,1,37.5,-162.5)"/><polygon points="142.65847744427302,225 54.490689600402064,271.3525491562421 71.32923872213651,173.17627457812105 0,103.64745084375784 98.57458352233752,89.32372542187895 142.658477444273,0 186.7423713662085,89.32372542187893 285.316954888546,103.64745084375785 213.98771616640954,173.17627457812102 230.82626528814413,271.35254915624205" fill="url(#SvgjsLinearGradient1289)" transform="matrix(1,0,0,1,75,-125)"/><polygon points="118.88206453689419,187.5 45.40890800033506,226.12712429686843 59.4410322684471,144.31356214843422 0,86.37287570313154 82.14548626861462,74.43643785156578 118.88206453689416,0 155.61864280517375,74.43643785156578 237.76412907378835,86.37287570313154 178.32309680534127,144.3135621484342 192.35522107345344,226.12712429686835" fill="url(#SvgjsLinearGradient1287)" transform="matrix(1,0,0,1,112.5,-87.5)"/><polygon points="95.10565162951535,150 36.32712640026805,180.90169943749476 47.552825814757675,115.45084971874738 0,69.09830056250523 65.71638901489169,59.549150281252636 95.10565162951534,0 124.494914244139,59.54915028125262 190.21130325903073,69.09830056250523 142.65847744427305,115.45084971874736 153.88417685876277,180.9016994374947" fill="url(#SvgjsLinearGradient1291)" transform="matrix(1,0,0,1,150,-50)"/><polygon points="71.32923872213651,112.5 27.245344800201032,135.67627457812105 35.664619361068254,86.58813728906053 0,51.82372542187892 49.28729176116876,44.661862710939474 71.3292387221365,0 93.37118568310424,44.66186271093947 142.658477444273,51.823725421878926 106.99385808320477,86.58813728906051 115.41313264407206,135.67627457812102" fill="url(#SvgjsLinearGradient1292)" transform="matrix(1,0,0,1,187.5,-12.5)"/><polygon points="47.552825814757675,75 18.163563200134025,90.45084971874738 23.776412907378838,57.72542485937369 0,34.549150281252615 32.858194507445845,29.774575140626318 47.55282581475767,0 62.2474571220695,29.77457514062631 95.10565162951536,34.549150281252615 71.32923872213652,57.72542485937368 76.94208842938139,90.45084971874735" fill="url(#SvgjsLinearGradient1289)" transform="matrix(1,0,0,1,225,25)"/></svg>