<svg id="canvas" height="auto" xmlns="http://www.w3.org/2000/svg" version="1.1" xmlns:xlink="http://www.w3.org/1999/xlink" viewBox="0 0 300 100" width="auto" style="width: auto; height: auto;"><defs><linearGradient gradientTransform="matrix(1,0,0,1,0,0)" id="SvgjsLinearGradient1231"><stop stop-color="#b6d8c0" offset="0"/><stop stop-color="#b6ced8" offset="1"/></linearGradient><linearGradient gradientTransform="matrix(1,0,0,1,0,0)" id="SvgjsLinearGradient1228"><stop stop-color="#c8d9bf" offset="0"/><stop stop-color="#bfd9d0" offset="1"/></linearGradient><linearGradient gradientTransform="matrix(1,0,0,1,0,0)" id="SvgjsLinearGradient1230"><stop stop-color="#dadabd" offset="0"/><stop stop-color="#bddabd" offset="1"/></linearGradient><linearGradient gradientTransform="matrix(1,0,0,1,0,0)" id="SvgjsLinearGradient1227"><stop stop-color="#ecdbbc" offset="0"/><stop stop-color="#cdecbc" offset="1"/></linearGradient><linearGradient gradientTransform="matrix(1,0,0,1,0,0)" id="SvgjsLinearGradient1229"><stop stop-color="#fedcba" offset="0"/><stop stop-color="#dcfeba" offset="1"/></linearGradient></defs><polygon points="1190.7849302036032,0 2381.569860407206,2062.5 0,2062.5" fill="url(#SvgjsLinearGradient1227)" transform="matrix(1,0,0,1,-995.8333333333333,-1962.5)"/><polygon points="1169.1342951089923,0 2338.2685902179846,2025 0,2025" fill="url(#SvgjsLinearGradient1227)" transform="matrix(1,0,0,1,-975,-1925)"/><polygon points="1147.4836600143813,0 2294.9673200287625,1987.5 0,1987.5" fill="url(#SvgjsLinearGradient1227)" transform="matrix(1,0,0,1,-954.1666666666667,-1887.5)"/><polygon points="1125.8330249197704,0 2251.6660498395413,1950 0,1950" fill="url(#SvgjsLinearGradient1227)" transform="matrix(1,0,0,1,-933.3333333333333,-1850)"/><polygon points="1104.1823898251594,0 2208.364779650319,1912.5 0,1912.5" fill="url(#SvgjsLinearGradient1228)" transform="matrix(1,0,0,1,-912.5,-1812.5)"/><polygon points="1082.5317547305483,0 2165.063509461097,1875 0,1875" fill="url(#SvgjsLinearGradient1229)" transform="matrix(1,0,0,1,-891.6666666666667,-1775)"/><polygon points="1060.8811196359375,0 2121.762239271875,1837.5 0,1837.5" fill="url(#SvgjsLinearGradient1230)" transform="matrix(1,0,0,1,-870.8333333333333,-1737.5)"/><polygon points="1039.2304845413264,0 2078.460969082653,1800 0,1800" fill="url(#SvgjsLinearGradient1227)" transform="matrix(1,0,0,1,-850,-1700)"/><polygon points="1017.5798494467155,0 2035.1596988934307,1762.5 0,1762.5" fill="url(#SvgjsLinearGradient1229)" transform="matrix(1,0,0,1,-829.1666666666667,-1662.5)"/><polygon points="995.9292143521045,0 1991.8584287042088,1725 0,1725" fill="url(#SvgjsLinearGradient1230)" transform="matrix(1,0,0,1,-808.3333333333333,-1625)"/><polygon points="974.2785792574936,0 1948.5571585149873,1687.5 0,1687.5" fill="url(#SvgjsLinearGradient1227)" transform="matrix(1,0,0,1,-787.5,-1587.5)"/><polygon points="952.6279441628826,0 1905.2558883257652,1650 0,1650" fill="url(#SvgjsLinearGradient1230)" transform="matrix(1,0,0,1,-766.6666666666667,-1550)"/><polygon points="930.9773090682717,0 1861.954618136543,1612.5 0,1612.5" fill="url(#SvgjsLinearGradient1231)" transform="matrix(1,0,0,1,-745.8333333333333,-1512.5)"/><polygon points="909.3266739736606,0 1818.653347947321,1575 0,1575" fill="url(#SvgjsLinearGradient1227)" transform="matrix(1,0,0,1,-725,-1475)"/><polygon points="887.6760388790497,0 1775.3520777580993,1537.5 0,1537.5" fill="url(#SvgjsLinearGradient1229)" transform="matrix(1,0,0,1,-704.1666666666667,-1437.5)"/><polygon points="866.0254037844388,0 1732.0508075688776,1500 0,1500" fill="url(#SvgjsLinearGradient1231)" transform="matrix(1,0,0,1,-683.3333333333333,-1400)"/><polygon points="844.3747686898279,0 1688.7495373796555,1462.5 0,1462.5" fill="url(#SvgjsLinearGradient1227)" transform="matrix(1,0,0,1,-662.5,-1362.5)"/><polygon points="822.7241335952169,0 1645.4482671904334,1425 0,1425" fill="url(#SvgjsLinearGradient1227)" transform="matrix(1,0,0,1,-641.6666666666667,-1325)"/><polygon points="801.0734985006058,0 1602.1469970012113,1387.5 0,1387.5" fill="url(#SvgjsLinearGradient1228)" transform="matrix(1,0,0,1,-620.8333333333333,-1287.5)"/><polygon points="779.4228634059948,0 1558.8457268119896,1350 0,1350" fill="url(#SvgjsLinearGradient1230)" transform="matrix(1,0,0,1,-600,-1250)"/><polygon points="757.7722283113839,0 1515.544456622768,1312.5 0,1312.5" fill="url(#SvgjsLinearGradient1230)" transform="matrix(1,0,0,1,-579.1666666666667,-1212.5)"/><polygon points="736.1215932167729,0 1472.2431864335458,1275 0,1275" fill="url(#SvgjsLinearGradient1227)" transform="matrix(1,0,0,1,-558.3333333333333,-1175)"/><polygon points="714.470958122162,0 1428.9419162443237,1237.5 0,1237.5" fill="url(#SvgjsLinearGradient1228)" transform="matrix(1,0,0,1,-537.5,-1137.5)"/><polygon points="692.820323027551,0 1385.640646055102,1200 0,1200" fill="url(#SvgjsLinearGradient1229)" transform="matrix(1,0,0,1,-516.6666666666667,-1100)"/><polygon points="671.16968793294,0 1342.33937586588,1162.5 0,1162.5" fill="url(#SvgjsLinearGradient1231)" transform="matrix(1,0,0,1,-495.8333333333333,-1062.5)"/><polygon points="649.519052838329,0 1299.0381056766582,1125 0,1125" fill="url(#SvgjsLinearGradient1227)" transform="matrix(1,0,0,1,-475,-1025)"/><polygon points="627.868417743718,0 1255.736835487436,1087.5 0,1087.5" fill="url(#SvgjsLinearGradient1227)" transform="matrix(1,0,0,1,-454.16666666666663,-987.5)"/><polygon points="606.2177826491071,0 1212.435565298214,1050 0,1050" fill="url(#SvgjsLinearGradient1227)" transform="matrix(1,0,0,1,-433.33333333333337,-950)"/><polygon points="584.5671475544962,0 1169.1342951089923,1012.5 0,1012.5" fill="url(#SvgjsLinearGradient1227)" transform="matrix(1,0,0,1,-412.5,-912.5)"/><polygon points="562.9165124598852,0 1125.8330249197707,975 0,975" fill="url(#SvgjsLinearGradient1230)" transform="matrix(1,0,0,1,-391.66666666666663,-875)"/><polygon points="541.2658773652742,0 1082.5317547305485,937.5 0,937.5" fill="url(#SvgjsLinearGradient1229)" transform="matrix(1,0,0,1,-370.83333333333337,-837.5)"/><polygon points="519.6152422706632,0 1039.2304845413264,900 0,900" fill="url(#SvgjsLinearGradient1229)" transform="matrix(1,0,0,1,-350,-800)"/><polygon points="497.96460717605225,0 995.9292143521044,862.5 0,862.5" fill="url(#SvgjsLinearGradient1231)" transform="matrix(1,0,0,1,-329.16666666666663,-762.5)"/><polygon points="476.3139720814413,0 952.6279441628826,825 0,825" fill="url(#SvgjsLinearGradient1227)" transform="matrix(1,0,0,1,-308.33333333333337,-725)"/><polygon points="454.6633369868303,0 909.3266739736605,787.5 0,787.5" fill="url(#SvgjsLinearGradient1228)" transform="matrix(1,0,0,1,-287.5,-687.5)"/><polygon points="433.0127018922194,0 866.0254037844388,750 0,750" fill="url(#SvgjsLinearGradient1230)" transform="matrix(1,0,0,1,-266.66666666666663,-650)"/><polygon points="411.36206679760846,0 822.7241335952167,712.5 0,712.5" fill="url(#SvgjsLinearGradient1228)" transform="matrix(1,0,0,1,-245.83333333333334,-612.5)"/><polygon points="389.7114317029974,0 779.4228634059948,675 0,675" fill="url(#SvgjsLinearGradient1230)" transform="matrix(1,0,0,1,-225,-575)"/><polygon points="368.06079660838645,0 736.1215932167729,637.5 0,637.5" fill="url(#SvgjsLinearGradient1229)" transform="matrix(1,0,0,1,-204.16666666666666,-537.5)"/><polygon points="346.4101615137755,0 692.820323027551,600 0,600" fill="url(#SvgjsLinearGradient1231)" transform="matrix(1,0,0,1,-183.33333333333334,-500)"/><polygon points="324.7595264191645,0 649.5190528383291,562.5 0,562.5" fill="url(#SvgjsLinearGradient1228)" transform="matrix(1,0,0,1,-162.5,-462.5)"/><polygon points="303.10889132455355,0 606.217782649107,525 0,525" fill="url(#SvgjsLinearGradient1227)" transform="matrix(1,0,0,1,-141.66666666666669,-425)"/><polygon points="281.4582562299426,0 562.9165124598853,487.5 0,487.5" fill="url(#SvgjsLinearGradient1228)" transform="matrix(1,0,0,1,-120.83333333333333,-387.5)"/><polygon points="259.8076211353316,0 519.6152422706632,450 0,450" fill="url(#SvgjsLinearGradient1227)" transform="matrix(1,0,0,1,-100,-350)"/><polygon points="238.15698604072065,0 476.3139720814413,412.5 0,412.5" fill="url(#SvgjsLinearGradient1228)" transform="matrix(1,0,0,1,-79.16666666666667,-312.5)"/><polygon points="216.5063509461097,0 433.0127018922194,375 0,375" fill="url(#SvgjsLinearGradient1230)" transform="matrix(1,0,0,1,-58.33333333333333,-275)"/><polygon points="194.8557158514987,0 389.7114317029974,337.5 0,337.5" fill="url(#SvgjsLinearGradient1229)" transform="matrix(1,0,0,1,-37.5,-237.5)"/><polygon points="173.20508075688775,0 346.4101615137755,300 0,300" fill="url(#SvgjsLinearGradient1230)" transform="matrix(1,0,0,1,-16.66666666666667,-200)"/><polygon points="151.55444566227678,0 303.1088913245535,262.5 0,262.5" fill="url(#SvgjsLinearGradient1229)" transform="matrix(1,0,0,1,4.166666666666664,-162.5)"/><polygon points="129.9038105676658,0 259.8076211353316,225 0,225" fill="url(#SvgjsLinearGradient1228)" transform="matrix(1,0,0,1,25,-125)"/><polygon points="108.25317547305485,0 216.5063509461097,187.5 0,187.5" fill="url(#SvgjsLinearGradient1228)" transform="matrix(1,0,0,1,45.833333333333336,-87.5)"/><polygon points="86.60254037844388,0 173.20508075688775,150 0,150" fill="url(#SvgjsLinearGradient1228)" transform="matrix(1,0,0,1,66.66666666666666,-50)"/><polygon points="64.9519052838329,0 129.9038105676658,112.5 0,112.5" fill="url(#SvgjsLinearGradient1227)" transform="matrix(1,0,0,1,87.5,-12.5)"/><polygon points="43.30127018922194,0 86.60254037844388,75 0,75" fill="url(#SvgjsLinearGradient1227)" transform="matrix(1,0,0,1,108.33333333333333,25)"/></svg>